<?xml version="1.0" encoding="UTF-8"?><svg xmlns="http://www.w3.org/2000/svg" viewBox="0 0 841.72 382.9"><defs><style>.d{fill:#000;}</style></defs><g id="a"/><g id="b"><g id="c"><g><path class="d" d="M823.45,72.83c-43.28-83.99-179.77-96.7-244.23-31.01-8.96-6.44-18.89-11.84-29.77-16.18-17.35-6.94-36.3-10.41-56.8-10.41s-39.35,3.56-56.55,10.67c-17.19,7.13-32.16,16.78-44.87,29.01-12.73,12.25-22.57,26.55-29.51,42.92-6.94,16.37-10.41,33.97-10.41,52.82s3.47,35.95,10.41,52.32c6.46,15.24,15.35,28.71,26.71,40.36,.05,.05,.09,.09,.14,.14-3.45,3.42-6.92,6.85-10.41,10.21-32.92,31.88-68.13,61.07-108.38,84.31-53.88,30.02-122.01,48.5-180.1,20.78C34.45,332.34,5.01,275.82,12.15,216.49c0-.14,.02-.25,.05-.39,.12-1.01,.28-2.05,.44-3.06,.18-1.22,.32-2.44,.53-3.63,.11-.71,.23-1.4,.37-2.09,.16-.99,.37-1.95,.57-2.92,.11-.51,.23-1.01,.34-1.52,2.02-9.49,5.15-18.27,9.29-26.34,.67-1.33,1.36-2.62,2.07-3.91,.78-1.47,1.63-2.92,2.55-4.32,.55-.87,1.13-1.75,1.7-2.62,17.98-26.62,47.7-42.78,79.42-51.17,.14-.05,.28-.07,.41-.09,9.33-2.25,18.83-3.86,28.39-4.92-4.07,13.15-6.09,26.85-6.09,41.12,0,18.53,3.38,35.95,10.16,52.32,6.78,16.37,16.27,30.69,28.53,42.91,12.23,12.23,26.53,21.91,42.89,29.01,16.37,7.1,34.13,10.67,53.3,10.67,11.59,0,22.99-1.33,34.23-3.98,11.24-2.64,21.17-5.95,29.77-9.91v-73.42c-8.6,7.61-17.61,13.33-27.03,17.12-9.42,3.79-18.94,5.7-28.53,5.7s-19.01-1.91-27.26-5.7c-8.27-3.79-15.47-8.94-21.58-15.38-6.11-6.46-10.92-13.98-14.39-22.57-3.47-8.6-5.19-17.86-5.19-27.77s1.63-19.1,4.94-27.54c2-5.08,4.44-9.77,7.36-14.07,5.72-.16,11.45-.41,17.17-.78,16.5-.3,32.96-1.54,49.28-5.24,6.48-1.54,13.38-3.4,19.86-6.23,21.1-6.8,39.81-18.25,39.61-38.02v-.09c1.33-19.17-18.56-35.13-44.73-39.21-10.78-1.68-21.26-2.74-31.49-2.74-20.18,0-38.69,3.56-55.56,10.67-16.85,7.1-31.33,16.87-43.4,29.26-11.4,11.7-20.37,25.19-26.87,40.46-16,1.88-31.93,5.08-47.03,10-1.01,.3-2,.62-3.01,.97-27.61,8.96-52.73,24.18-69.97,48.45-.6,.85-1.2,1.7-1.75,2.57-.51,.74-1.01,1.49-1.49,2.28-.34,.53-.69,1.08-1.01,1.63-.46,.74-.9,1.47-1.31,2.21-.44,.74-.87,1.49-1.29,2.23-2.07,3.75-3.93,7.59-5.61,11.52-.34,.78-.67,1.56-.97,2.34-.53,1.24-.99,2.51-1.43,3.77-.16,.41-.32,.83-.46,1.24-.34,.99-.67,1.95-.99,2.94C.71,207.16-1.2,227.46,.71,247.46c0,.16,.02,.32,.05,.48,.62,7.61,1.72,15.19,3.22,22.71,10.37,47.24,46.91,86.91,92.27,102.91,46.09,16.71,96.36,9.36,140.9-9.06,12.96-5.22,25.51-11.36,37.38-18.04,45.31-26.25,84.17-60.04,120.61-96.75,11.65,10.44,25.17,18.83,40.5,25.17,17.19,7.1,36.04,10.67,56.55,10.67s39.42-3.65,56.78-10.92c17.35-7.26,32.32-17.1,44.89-29.51,12.55-12.39,22.39-26.78,29.51-43.14,7.1-16.37,10.67-33.81,10.67-52.32s-3.47-35.97-10.44-52.34c-6.94-16.37-16.69-30.66-29.26-42.89-1.29-1.24-2.6-2.48-3.93-3.63-2-1.84-4.07-3.56-6.18-5.24-.09-.07-.21-.16-.3-.23,62.04-62.89,193.66-50.84,235.77,29.56,35.1,64.15,19.29,155.36-43.9,196.05-15.31,10.16-32.71,16.99-50.66,20.96l.48,2.25c18.23-3.91,35.97-10.71,51.65-20.96,65-41.21,81.72-134.38,46.2-200.35Zm-576.7,12.6c8.25-3.47,17.35-5.22,27.28-5.22,3.24,0,6.39,.18,9.47,.55,.02,0,.07,.02,.09,.02,3.84,.83,13.42,3.45,2.67,7.15-.05,.02-.09,.02-.12,.05-10.6,2.41-21.54,3.98-32.18,5.38h-.02c-7.68,.64-15.29,.97-22.34,1.13,4.46-3.68,9.52-6.69,15.15-9.06Zm184.42,91.99c-3.31-8.6-4.96-17.86-4.96-27.77s1.56-18.69,4.71-27.28c3.13-8.6,7.52-16.04,13.15-22.32,5.61-6.28,12.46-11.24,20.57-14.87,8.09-3.65,17.1-5.47,27.03-5.47s19.01,1.91,27.28,5.7c4.44,2.05,8.57,4.48,12.34,7.31-24.07,23.38-46.89,48.11-69.6,72.96-.18,.18-.37,.37-.53,.57-7.77,8.16-15.52,16.32-23.22,24.53-2.71-4.11-4.94-8.57-6.78-13.35Zm123.25,0c-3.15,8.6-7.63,16.11-13.4,22.57-5.79,6.44-12.83,11.56-21.08,15.38-8.27,3.79-17.35,5.7-27.28,5.7s-18.43-1.91-26.53-5.7c-8.11-3.82-15.12-8.94-21.08-15.38-.51-.55-.99-1.1-1.45-1.65,30.89-33.9,61.3-68.43,93.9-100.36,.94,.9,1.88,1.84,2.78,2.8,5.93,6.46,10.57,13.88,13.88,22.32,3.29,8.44,4.94,17.45,4.94,27.03s-1.56,18.69-4.69,27.28Z"/><path class="d" d="M16.38,166.45c-2.07,3.75-3.93,7.59-5.61,11.52,1.66-4.02,3.54-7.86,5.61-11.52Z"/><path class="d" d="M23.74,176.54c-2,3.98-3.77,8.14-5.26,12.53-1.63,4.51-2.97,9.13-4.02,13.81,2.02-9.49,5.15-18.27,9.29-26.34Z"/><path class="d" d="M388.57,243.46c-3.45,3.42-6.92,6.85-10.41,10.21,3.45-3.4,6.9-6.87,10.27-10.34,.05,.05,.09,.09,.14,.14Z"/></g></g></g></svg>